<svg xmlns="http://www.w3.org/2000/svg" xmlns:xlink="http://www.w3.org/1999/xlink" viewBox="0 0 500 500" width="500" height="500" preserveAspectRatio="xMidYMid meet" style="width: 100%; height: 100%; transform: translate3d(0px, 0px, 0px); content-visibility: visible;"><defs><clipPath id="__lottie_element_4841"><rect width="500" height="500" x="0" y="0"/></clipPath></defs><g clip-path="url(#__lottie_element_4841)"><g transform="matrix(1,0,0,1,250,250)" opacity="1" style="display: block;"><g opacity="1" transform="matrix(1,0,0,1,0,0)"><path stroke-linecap="round" stroke-linejoin="round" fill-opacity="0" stroke="rgb(8,168,138)" stroke-opacity="1" stroke-width="12.04" d=" M0,66.82671356201172 C-88.43099975585938,66.82671356201172 -160.11900329589844,36.90714645385742 -160.11900329589844,0 C-160.11900329589844,-36.90714645385742 -88.43099975585938,-66.82671356201172 0,-66.82671356201172 C88.43099975585938,-66.82671356201172 160.11900329589844,-36.90714645385742 160.11900329589844,0 C160.11900329589844,36.90714645385742 88.43099975585938,66.82671356201172 0,66.82671356201172z"/></g></g><g transform="matrix(1,0,0,1,250,250)" opacity="1" style="display: block;"><g opacity="1" transform="matrix(1,0,0,1,0,0)"><path stroke-linecap="round" stroke-linejoin="round" fill-opacity="0" stroke="rgb(8,168,138)" stroke-opacity="1" stroke-width="12.04" d=" M70.63372802734375,0 C70.63372802734375,88.43099975585938 39.00984573364258,160.11900329589844 0,160.11900329589844 C-39.00984573364258,160.11900329589844 -70.63372802734375,88.43099975585938 -70.63372802734375,0 C-70.63372802734375,-88.43099975585938 -39.00984573364258,-160.11900329589844 0,-160.11900329589844 C39.00984573364258,-160.11900329589844 70.63372802734375,-88.43099975585938 70.63372802734375,0z"/></g></g><g transform="matrix(1,0,0,1,250,250)" opacity="1" style="display: block;"><g opacity="1" transform="matrix(1,0,0,1,0,0)"><path stroke-linecap="round" stroke-linejoin="round" fill-opacity="0" stroke="rgb(18,19,49)" stroke-opacity="1" stroke-width="12.04" d=" M160.11900329589844,0 C160.11900329589844,88.43099975585938 88.43099975585938,160.11900329589844 0,160.11900329589844 C-88.43099975585938,160.11900329589844 -160.11900329589844,88.43099975585938 -160.11900329589844,0 C-160.11900329589844,-88.43099975585938 -88.43099975585938,-160.11900329589844 0,-160.11900329589844 C88.43099975585938,-160.11900329589844 160.11900329589844,-88.43099975585938 160.11900329589844,0z"/></g></g><g class="com" style="display: none;"><g><path/></g><g><path/></g><g><path/></g><g><path/></g><g><path/></g><g><path/></g><g><path/></g><g><path/></g><g><path/></g><g><path/></g><g><path/></g><g><path/></g></g></g></svg>